  <svg fill="none" height="32" role="img" viewBox="0 0 205 32" width="205" xmlns="http://www.w3.org/2000/svg">
    <title>買えるオーガニック</title>
    <path
      d="M17.383 5.64659H4.57691l-3.5367-.06949-.161812.13897.069347 2.06141v1.06545L.878398 11.3444l.161812.1622 3.5367-.0695H17.383l3.5136.0695.1849-.1622-.0693-2.50147V7.77748l.0693-2.01508-.1849-.1853-3.5136.06949Zm-2.1497 3.56693V7.91645h2.4502v1.29707h-2.4502Zm-3.1669 0H9.68549V7.91645h2.38091v1.29707ZM6.51864 7.91645v1.29707H4.18395V7.91645h2.33469ZM18.4695 23.1338l.1618-.2316-.0694-3.2427v-4.4007l.0694-2.8026-.1618-.2085-2.8895.0695H6.4724l-2.88946-.0695-.16181.2085.06935 2.8026v4.4007l-.1387 3.2659.16181.2084 2.9357-.0695C4.57691 23.6897 2.42715 24.2224 0 24.5235l1.45629 2.0615c.16181.2316.36985.2547.71659.2084 2.47338-.3474 5.40908-1.2044 7.55884-2.0846l.02312-.2084-1.68745-1.4361h5.89451l-1.5025 1.5982.0693.1621c2.4503.4633 5.0855 1.1813 7.4433 1.992l.208-.0695 1.7337-2.0614-.0693-.2085c-1.7568-.6485-3.5136-1.0654-5.2011-1.3897l1.8262.0463ZM6.72668 20.007h8.48342v.9264H6.72668v-.9264Zm0-1.8761v-.9034h8.48342v.9034H6.72668Zm0-2.7795v-.9033h8.48342v.9033H6.72668Zm20.36492.4169c2.5196-.5327 4.8081-1.1349 6.8654-1.7603-3.005 3.0111-5.7558 5.9295-9.1769 9.8438v.2317l2.797 1.9456.2542-.0695c1.5026-2.0846 2.6815-3.6133 3.9759-5.0262.7629-.8569 1.1327-1.0886 1.595-1.0886.5317 0 .7397.2085.8322.6717.1618.996.208 1.8298.2774 2.71.1387 1.6676.6703 2.6404 4.6925 2.6404 1.4794 0 2.7276-.0463 3.8834-.1158l.1387-.2084-.2311-3.1501-.2081-.1158c-.8322.0927-1.9417.1853-3.1206.1853-1.7799 0-1.8724-.0926-1.9417-1.1581-.0463-.6253-.1387-1.2275-.2774-1.8761-.2312-1.0654-1.7337-1.8066-2.8433-1.5982 1.4101-1.4128 2.7508-2.5941 3.9297-3.7059.3005-.2779.6241-.6948.6241-1.3665 0-1.3434-1.202-2.2699-2.3346-2.2699-.2774 0-1.1096.2316-1.2945.278-3.6292.8106-5.9177 1.2275-9.0614 1.6445l-.1387.1853.601 3.0573.1618.1158Zm2.5428-7.48126c2.3347.6717 4.5769.9728 7.2814 1.20442l.2081-.11581.5779-3.05737-.1387-.16213c-2.6815-.09265-4.993-.41691-7.0735-.9728l-.1849.11581-.7859 2.80259.1156.18529ZM51.2707 10.997c2.1266-.6022 4.1608-1.08862 5.9176-1.45921-3.0744 3.05741-5.987 6.25371-9.1769 9.91331l.0231.2548 2.4734 1.9919.2311-.0232c2.4503-3.1732 4.8312-5.3504 8.1368-5.3504 1.9186 0 3.1437 1.2971 3.1437 2.9184 0 1.6214-.4161 2.71-1.7799 3.3585-.6241-1.6213-1.9417-3.428-4.6925-3.428-1.8724 0-3.5367 1.714-3.5367 3.2195 0 2.6405 2.3116 3.7754 5.0392 3.7754 5.3398 0 8.5066-2.3856 8.5066-6.6011 0-3.5901-2.3347-5.9758-5.8252-5.9758-.9708 0-1.7799.0463-2.8894.6022 1.9186-1.8992 3.2131-3.0805 5.0854-4.93346.3468-.34742.4161-.7875.4161-1.20441 0-1.11178-.9708-2.01509-2.1266-2.01509-2.5196.32427-6.0795.88015-9.5931 1.66766l-.1386.20845.601 2.96475.1849.1158Zm6.0794 12.3453c-.1849.0463-.4161.0695-.7397.0695-1.1789 0-1.7105-.4401-1.7105-.9265 0-.4169.416-.6022.8784-.6022.5547 0 1.3407.4632 1.5718 1.4592ZM72.5518 10.6191c0-.5334.1806-.981.5417-1.3429.3801-.38095.8364-.57143 1.3686-.57143h10.3224c.0381-.49524.2376-.91428.5989-1.25714.3802-.34286.8364-.51429 1.3687-.51429.5131.01905.9505.19999 1.3115.54284.3422.34286.5323.7524.5703 1.22859h1.3401c.5323 0 .9885.18094 1.3687.54287.3614.38096.542.83806.542 1.37146 0 .5333-.1901.9904-.5703 1.3714-.3613.3619-.8081.5428-1.3404.5428h-1.3401v10.6c-.114 1.1429-.7412 1.7619-1.8818 1.8572-.5323 0-.9982-.1714-1.3973-.5143-.3802-.3619-.5703-.8095-.5703-1.3429v-10.6H74.4621c-.5322 0-.9787-.1904-1.3401-.5714-.3801-.3619-.5702-.8095-.5702-1.3428Zm9.1818 2.3714c.5131.019.9219.2095 1.226.5714.323.3429.4657.7714.4277 1.2857l-.171 1.5143c-.1901 1.3524-.542 2.6286-1.0551 3.8286-.5514 1.2-1.3212 2.219-2.3097 3.0571-.9694.8191-2.1197 1.2667-3.4504 1.3429h-1.8818c-.5134-.0191-.9505-.2-1.3118-.5429-.3422-.3619-.5225-.8-.5417-1.3142 0-.5334.1713-.9905.5134-1.3715.3611-.3809.8079-.5809 1.3401-.6h1.4256c.7224-.0381 1.3498-.3143 1.8821-.8286.5511-.5142.9313-1.0952 1.1406-1.7428.2089-.6667.361-1.3905.4562-2.1714l.1141-1.1715c.0949-.5333.3516-.9714.7698-1.3143.4182-.3618.8936-.5428 1.4259-.5428Zm13.259 3.0571c0-.5333.1806-.9809.542-1.3428.3802-.381.8364-.5715 1.3687-.5715h14.3137c.533 0 .989.181 1.369.5429.361.3809.542.8381.542 1.3714s-.19.9905-.571 1.3714c-.361.362-.807.5429-1.34.5429H96.9033c-.5323 0-.9791-.1905-1.3404-.5714-.3802-.3619-.5703-.8096-.5703-1.3429Zm21.6144-4.9143c0-.5333.18-.9809.541-1.34281.381-.38096.837-.57143 1.369-.57143h4.506l.056-.42856c.096-.53333.352-.97146.77-1.31432.418-.36187.894-.54284 1.426-.54284.513.01905.922.20953 1.226.57143.323.34286.466.77141.428 1.28573l-.057.42856h7.442c.533 0 .989.18096 1.369.54284.399.419.58.8762.542 1.3714l-.628 5.2286c-.19 1.3524-.542 2.6286-1.055 3.8286-.551 1.2-1.311 2.2381-2.281 3.1143-.95.8762-1.939 1.3047-2.965 1.2857h-1.768c-.513-.0191-.951-.2-1.312-.5429-.342-.3619-.523-.8-.542-1.3142 0-.5334.171-.9905.514-1.3715.361-.3809.807-.5809 1.34-.6h1.311c.571-.019 1.074-.2857 1.512-.8.456-.5333.788-1.1238.998-1.7714.209-.6667.361-1.3905.456-2.1714l.228-2.2572c.057-.4571-.105-.6952-.485-.7143h-5.218l-.485 3.3143c-.19 1.3524-.541 2.6286-1.055 3.8286-.551 1.2-1.321 2.219-2.309 3.0571-.97.8191-2.12 1.2667-3.451 1.3429h-1.254c-.514-.0191-.951-.2-1.312-.5429-.342-.3619-.523-.8-.542-1.3142 0-.5334.171-.9905.513-1.3715.362-.3809.809-.5809 1.341-.6h.798c.723-.0381 1.35-.3143 1.882-.8286.551-.5142.932-1.0952 1.141-1.7428.209-.6667.361-1.3905.456-2.1714l.428-2.9715h-3.964c-.532 0-.979-.1904-1.34-.5714-.38-.3619-.57-.8095-.57-1.3429Zm11.177-5.11424c0-.57143.2-1.05716.599-1.45713.399-.40003.884-.60002 1.454-.60002.571 0 1.056.19999 1.455.60002.399.39997.598.8857.598 1.45713s-.199 1.05716-.598 1.45712c-.399.40004-.884.60002-1.455.60002-.57 0-1.055-.19998-1.454-.60002-.399-.39996-.599-.88569-.599-1.45712Zm4.905 0c0-.57143.199-1.05716.599-1.45713.399-.40003.884-.60002 1.454-.60002s1.055.19999 1.454.60002c.399.39997.599.8857.599 1.45713s-.2 1.05716-.599 1.45712c-.399.40004-.884.60002-1.454.60002s-1.055-.19998-1.454-.60002c-.4-.39996-.599-.88569-.599-1.45712Zm7.157 16.65714c0-.5333.181-.981.542-1.3429.38-.3809.836-.5714 1.368-.5714h13.801c.533 0 .989.181 1.369.5429.361.3809.542.8381.542 1.3714s-.19.9905-.57 1.3714c-.362.3619-.808.5429-1.341.5429h-13.801c-.532 0-.978-.1905-1.34-.5714-.38-.3619-.57-.8096-.57-1.3429Zm0-13.02859c0-.53333.181-.98093.542-1.34284.38-.38095.836-.57143 1.368-.57143h13.801c.533 0 .989.18097 1.369.54284.361.38096.542.8381.542 1.37143 0 .53329-.19.99049-.57 1.37139-.362.362-.808.5429-1.341.5429h-13.801c-.532 0-.978-.1905-1.34-.5714-.38-.3619-.57-.8096-.57-1.34289Zm36.042 3.48579-1.939 6.1142c-.608 1.7524-1.369 3.0667-2.281 3.9429-.912.8762-1.901 1.3524-2.965 1.4285h-1.825c-.419-.019-.77-.1714-1.056-.4571-.284-.2857-.427-.6285-.427-1.0286 0-.438.133-.8095.399-1.1142.285-.3048.647-.4667 1.084-.4858h1.026c.59-.019 1.131-.2285 1.626-.6285.513-.4191.903-.8953 1.169-1.4286.266-.5333.484-1.1048.655-1.7143l1.683-5.6286c.114-.3238.275-.5904.485-.8.209-.2095.522-.3143.941-.3143.418 0 .769.1524 1.054.4572.305.3047.457.6762.457 1.1143 0 .1905-.029.3714-.086.5429Zm-13.202-2.0001c.418 0 .77.1429 1.055.4286.285.2857.437.6381.456 1.0571v4.6572c-.095.9143-.598 1.4095-1.511 1.4857-.418 0-.789-.1428-1.112-.4286-.304-.2857-.456-.6381-.456-1.0571V12.619c.019-.438.18-.7904.484-1.0571.305-.2857.666-.4286 1.084-.4286Zm4.562 0c.419 0 .77.1429 1.055.4286.285.2857.438.6381.457 1.0571v4.6572c-.095.9143-.599 1.4095-1.512 1.4857-.418 0-.789-.1428-1.112-.4286-.304-.2857-.456-.6381-.456-1.0571V12.619c.019-.438.181-.7904.485-1.0571.304-.2857.665-.4286 1.083-.4286Zm19.305-3.39996h12.118c.532 0 .989.18097 1.369.54284.399.41905.58.8762.542 1.37143l-.913 6.71429c-.19 1.3524-.542 2.6286-1.055 3.8286-.551 1.2-1.321 2.219-2.309 3.0571-.97.8191-2.12 1.2667-3.451 1.3429h-2.623c-.513-.0191-.951-.2-1.312-.5429-.342-.3619-.522-.8-.541-1.3142 0-.5334.171-.9905.513-1.3715.361-.3809.808-.5809 1.34-.6h2.167c.722-.0381 1.35-.3143 1.882-.8286.551-.5142.931-1.0952 1.141-1.7428.209-.6667.361-1.3905.456-2.1714l.513-3.7429c.057-.4572-.104-.6952-.485-.7143h-8.041c-.19.8191-.447 1.6-.77 2.3429-.551 1.2-1.321 2.219-2.309 3.0571-.97.8191-2.12 1.2667-3.451 1.3429h-.627c-.513-.0191-.95-.2-1.312-.5429-.342-.3619-.522-.8-.541-1.3143 0-.5333.171-.9904.513-1.3714.361-.3809.808-.581 1.34-.6h.171c.722-.0381 1.35-.3143 1.882-.8286.551-.5142.932-1.0952 1.141-1.7428.209-.6667.361-1.3905.456-2.17146V9.5905c.095-.53333.352-.98097.77-1.34287.418-.34286.893-.51429 1.426-.51429Z"
      fill="#3BA175"
    />
  </svg>
